<?xml version="1.0" standalone="no"?>
<!DOCTYPE svg PUBLIC "-//W3C//DTD SVG 20010904//EN"
 "http://www.w3.org/TR/2001/REC-SVG-20010904/DTD/svg10.dtd">
<svg version="1.0" xmlns="http://www.w3.org/2000/svg"
 width="16.000000pt" height="16.000000pt" viewBox="0 0 16.000000 16.000000"
 preserveAspectRatio="xMidYMid meet">
<metadata>
Created by potrace 1.11, written by Peter Selinger 2001-2013
</metadata>
<g transform="translate(0.000000,16.000000) scale(0.003125,-0.003125)"
fill="#000000" stroke="none">
<path d="M440 5081 c0 -12 -268 -280 -274 -274 -3 4 -6 2 -6 -3 0 -14 -105
-124 -118 -124 -17 0 -15 -15 3 -30 8 -7 12 -17 8 -24 -3 -6 -3 -8 1 -4 9 8
175 -154 169 -165 -3 -4 -1 -6 4 -5 5 2 220 -208 477 -466 l469 -469 -29 -24
c-16 -13 -28 -28 -26 -34 1 -6 -1 -9 -5 -6 -11 6 -250 -241 -244 -251 5 -8 42
-21 76 -27 6 -1 12 -3 15 -4 10 -5 46 -12 69 -15 14 -1 27 -8 29 -14 3 -10 7
-10 18 -1 11 9 14 9 14 0 0 -7 5 -9 10 -6 6 3 10 1 10 -5 0 -7 7 -9 16 -6 9 4
23 1 30 -5 8 -6 14 -9 14 -6 0 4 18 0 41 -8 23 -8 45 -12 50 -9 5 3 9 1 9 -4
0 -5 6 -9 13 -10 6 0 23 -3 37 -7 14 -3 32 -8 40 -10 8 -2 15 -4 15 -6 0 -1 9
-3 20 -5 24 -4 45 -9 65 -17 27 -10 112 -30 126 -30 8 0 14 -5 14 -10 0 -6 3
-8 6 -5 3 4 34 -2 69 -12 35 -10 66 -16 69 -12 3 3 6 -1 6 -8 0 -7 3 -11 6 -8
4 5 27 0 129 -28 11 -4 32 -8 48 -11 15 -3 27 -10 27 -16 0 -8 3 -8 11 0 7 7
18 8 28 3 36 -19 81 -33 149 -45 23 -4 42 -11 42 -14 0 -4 17 -8 37 -9 21 -2
41 -8 45 -15 10 -17 22 19 13 41 -10 20 -15 40 -20 67 -2 11 -4 20 -5 20 -3 0
-12 39 -13 58 -1 9 -4 17 -7 17 -5 0 -10 22 -13 63 -1 9 -5 17 -10 17 -5 0 -7
6 -4 14 3 8 3 17 -1 21 -4 4 -8 11 -8 16 -1 5 -3 11 -4 14 -1 3 -3 8 -4 13
-17 73 -31 120 -40 131 -9 12 -8 13 4 6 13 -7 13 -6 2 7 -7 9 -15 29 -17 44
-13 77 -18 94 -25 94 -5 0 -7 11 -5 25 1 14 -2 25 -7 25 -5 0 -7 4 -4 8 3 5
-1 19 -8 33 -7 13 -11 30 -8 37 2 7 -2 19 -8 28 -7 8 -10 17 -6 21 3 3 -2 15
-11 26 -10 11 -12 17 -5 13 6 -4 12 -2 12 3 0 6 -4 11 -8 11 -4 0 -9 8 -10 18
-2 21 -10 57 -12 57 -1 0 -3 7 -5 15 -4 16 -12 48 -20 80 -6 24 -9 36 -32 120
-10 36 -22 71 -27 79 -6 10 -5 12 2 7 17 -10 15 0 -5 19 -13 14 -14 18 -2 25
11 7 11 10 -3 15 -10 4 -15 16 -13 31 1 13 -2 27 -7 30 -4 3 -6 10 -3 15 4 5
1 9 -5 9 -6 0 -9 4 -6 8 2 4 1 14 -4 21 -6 10 -48 -27 -158 -138 -140 -140
-172 -167 -172 -141 0 6 -7 10 -15 10 -8 0 -15 4 -15 9 0 11 -360 371 -372
371 -5 0 -7 3 -5 8 4 9 -171 181 -178 174 -3 -3 -5 0 -5 7 0 15 -57 71 -72 71
-6 0 -9 2 -6 5 7 8 -325 342 -334 337 -5 -2 -8 1 -8 7 0 13 -78 91 -91 91 -5
0 -9 6 -9 14 0 8 -7 16 -15 20 -8 3 -15 2 -15 -3z"/>
<path d="M4638 5066 c-10 -7 -18 -19 -18 -26 0 -7 -2 -11 -5 -8 -7 6 -1055
-1041 -1055 -1054 0 -5 -3 -8 -7 -6 -11 5 -62 -50 -54 -58 3 -4 -2 -2 -13 3
-20 11 -196 182 -196 192 -1 3 -19 20 -40 36 -21 17 -39 35 -40 40 -1 16 -46
46 -48 32 -4 -27 -10 -62 -12 -64 -2 -2 -3 -6 -4 -10 -1 -5 -5 -14 -10 -22 -7
-11 -6 -12 5 -6 8 5 5 -1 -5 -13 -11 -12 -16 -22 -11 -22 4 0 2 -7 -5 -15 -10
-12 -10 -15 0 -15 9 0 10 -4 2 -13 -6 -7 -14 -28 -17 -47 -3 -19 -9 -37 -13
-40 -4 -3 -7 -12 -7 -20 1 -8 -1 -19 -4 -25 -3 -5 -6 -14 -7 -20 -5 -29 -10
-41 -19 -47 -6 -5 -5 -8 4 -8 10 0 11 -3 2 -13 -6 -8 -8 -17 -4 -20 3 -4 1 -7
-5 -7 -7 0 -11 -3 -10 -7 2 -11 -14 -86 -21 -98 -3 -5 -6 -18 -7 -27 -1 -10
-3 -20 -4 -23 -3 -6 -4 -10 -14 -50 -4 -16 -10 -37 -13 -45 -3 -8 -7 -21 -9
-28 -1 -8 -6 -21 -10 -30 -4 -9 -8 -28 -9 -42 -1 -14 -4 -26 -5 -27 -1 -2 -3
-6 -4 -10 -1 -5 -7 -26 -14 -47 -6 -22 -9 -43 -6 -48 3 -4 0 -8 -7 -8 -7 0
-10 -3 -6 -6 3 -3 -1 -23 -8 -44 -7 -21 -11 -41 -8 -44 4 -3 2 -6 -4 -6 -6 0
-10 -6 -10 -12 1 -24 -16 -98 -22 -98 -4 0 -7 -8 -8 -17 -3 -43 -8 -63 -14
-63 -4 0 -6 -11 -4 -25 1 -14 -1 -25 -5 -25 -4 0 -7 -6 -8 -12 -1 -15 -10 -53
-12 -53 -3 0 -13 -51 -14 -72 -1 -11 -4 -19 -8 -16 -5 2 -8 -1 -8 -8 0 -8 10
-9 33 -4 17 4 40 8 50 8 9 1 17 5 17 10 0 4 4 5 10 2 5 -3 19 -1 30 5 12 6 29
13 38 15 15 3 76 18 122 30 8 2 15 4 15 6 0 1 11 2 25 3 14 1 40 9 58 18 18
10 32 12 32 6 0 -7 4 -7 13 -1 6 6 26 14 42 18 45 12 45 12 48 15 1 1 11 3 22
5 26 5 59 13 63 15 6 6 96 24 105 22 4 -1 7 2 7 6 0 7 16 11 58 14 6 1 12 5
12 9 0 4 9 6 20 4 11 -2 20 -1 20 3 0 4 12 9 28 10 15 1 28 6 30 12 2 5 10 6
18 3 8 -3 20 -1 27 4 6 5 21 9 32 9 11 -1 22 2 25 6 5 5 56 18 88 20 6 1 12 4
12 8 0 3 8 7 18 8 24 2 44 8 64 16 9 4 22 5 28 1 5 -3 10 -1 10 5 0 7 6 10 14
7 8 -3 17 -3 20 1 4 3 12 7 19 9 35 7 52 12 55 13 1 2 7 4 12 5 6 1 11 3 13 4
1 2 13 4 27 7 41 7 50 13 50 30 0 10 -3 15 -6 12 -7 -8 -54 40 -54 54 0 6 -2
9 -5 6 -7 -6 -75 60 -75 73 0 5 -4 9 -9 9 -11 0 -131 120 -131 131 0 5 -5 9
-11 9 -8 0 -9 4 0 13 6 8 9 17 6 20 -3 4 -2 5 2 2 3 -3 37 26 74 64 37 38 69
67 72 65 3 -3 8 4 12 15 3 12 14 21 22 21 9 0 14 2 11 5 -8 8 338 355 353 355
7 0 10 3 7 6 -4 3 131 143 299 311 l305 306 -50 48 c-27 26 -47 50 -44 53 3 3
0 6 -7 6 -14 0 -71 56 -71 70 0 6 -4 10 -9 10 -5 0 -60 52 -124 115 -63 63
-116 115 -118 115 -2 0 -12 -7 -21 -14z"/>
<path d="M2757 2346 c-3 -8 -1 -17 6 -20 8 -3 6 -5 -3 -5 -12 -1 -12 -3 -2 -9
7 -5 15 -22 18 -38 8 -42 12 -59 14 -61 2 -2 4 -7 5 -13 1 -5 3 -11 5 -12 2
-3 7 -25 12 -53 2 -11 7 -25 11 -31 3 -6 8 -25 9 -43 1 -17 5 -31 8 -31 4 0 7
-6 8 -12 1 -7 3 -24 4 -38 2 -14 5 -27 8 -30 3 -3 17 -50 30 -105 13 -55 29
-103 35 -107 5 -4 7 -8 4 -8 -4 0 -3 -17 3 -37 5 -21 11 -47 13 -58 2 -11 4
-21 5 -22 2 -2 3 -6 4 -10 1 -5 5 -14 9 -20 5 -7 6 -13 2 -13 -3 0 1 -16 9
-35 11 -26 12 -35 3 -35 -7 0 -5 -5 4 -10 10 -6 15 -20 14 -35 -2 -14 1 -25 7
-25 6 0 8 -7 4 -15 -3 -8 -1 -15 4 -15 5 0 6 -7 3 -17 -4 -9 -2 -14 3 -11 5 4
9 -4 10 -15 1 -24 8 -55 23 -104 5 -17 7 -34 3 -37 -3 -3 -1 -6 4 -6 5 0 11
-12 12 -26 1 -14 5 -31 9 -37 4 -6 8 -25 10 -41 2 -17 7 -32 12 -35 4 -4 7
-14 5 -23 -1 -10 2 -20 6 -23 5 -3 7 -14 5 -25 -2 -11 0 -20 6 -20 5 0 9 -11
9 -25 0 -14 4 -25 9 -25 12 0 266 253 264 262 -2 4 6 10 17 13 11 4 20 11 20
16 0 14 23 6 43 -16 31 -35 108 -114 115 -117 4 -2 19 -17 33 -35 15 -18 29
-30 32 -27 3 3 8 -4 12 -15 3 -12 12 -21 19 -21 7 0 19 -11 26 -25 7 -14 15
-23 18 -20 6 6 32 -21 32 -34 0 -5 9 -13 20 -16 11 -3 20 -10 20 -14 0 -11 89
-99 94 -94 2 3 7 -5 11 -16 3 -12 12 -21 19 -21 7 0 18 -10 25 -23 6 -12 25
-31 41 -42 17 -11 30 -25 30 -32 0 -6 9 -15 20 -18 11 -4 18 -11 15 -16 -4 -5
-3 -9 2 -9 8 0 38 -27 116 -109 27 -27 51 -51 55 -53 4 -2 19 -17 33 -35 15
-18 29 -30 32 -27 3 3 8 -4 12 -15 3 -12 12 -21 19 -21 7 0 19 -11 26 -25 7
-13 17 -22 21 -20 4 3 10 -4 14 -15 3 -11 13 -20 21 -20 8 0 14 -4 14 -8 0
-11 201 -212 212 -212 5 0 7 -4 3 -9 -3 -6 4 -9 15 -8 11 1 20 7 20 14 0 7 7
13 15 13 8 0 15 4 15 9 0 5 84 93 186 195 l185 186 -280 280 c-155 155 -281
285 -281 290 0 6 -4 9 -8 8 -4 -2 -20 9 -34 24 -14 15 -28 25 -32 21 -4 -4 -4
1 0 11 4 11 3 17 -2 14 -11 -6 -115 98 -106 106 3 3 1 6 -5 6 -13 0 -203 190
-203 203 0 6 -2 8 -5 5 -7 -7 -75 60 -75 74 0 5 -4 6 -10 3 -5 -3 -10 2 -10
11 0 10 -2 15 -5 12 -5 -5 -22 10 -109 101 l-39 40 31 30 c18 16 32 35 32 42
0 7 2 10 5 7 8 -7 135 119 135 134 0 6 3 8 6 5 7 -7 96 86 95 99 0 4 -13 9
-28 11 -16 2 -35 6 -43 10 -8 3 -21 5 -29 4 -7 -1 -11 2 -7 7 3 5 -5 8 -17 7
-12 -1 -27 1 -33 6 -6 5 -25 9 -42 11 -18 1 -32 5 -32 8 0 3 -12 7 -27 8 -15
1 -30 7 -34 13 -5 8 -9 8 -14 -1 -5 -8 -10 -9 -14 -1 -4 6 -18 13 -31 15 -14
2 -25 5 -25 6 0 3 -51 13 -72 14 -11 1 -19 5 -15 10 3 5 -2 7 -11 3 -10 -3
-17 -2 -17 3 0 5 -9 7 -20 5 -11 -2 -20 0 -20 4 0 4 -6 8 -12 9 -56 6 -76 10
-98 22 -14 7 -26 13 -27 12 -2 -1 -4 -2 -5 -1 -2 0 -11 2 -20 5 -10 2 -26 6
-35 8 -10 3 -18 5 -18 6 0 1 -11 3 -25 5 -14 2 -45 10 -69 19 -24 9 -48 13
-53 10 -6 -4 -13 -2 -17 4 -3 6 -20 13 -36 16 -17 2 -30 5 -30 6 0 1 -8 3 -17
6 -10 2 -26 6 -35 8 -10 3 -18 5 -18 6 0 1 -12 3 -26 4 -14 2 -32 7 -40 11 -7
5 -23 10 -34 12 -30 5 -48 10 -65 16 -8 4 -24 8 -35 10 -11 2 -27 7 -35 10 -8
3 -36 10 -61 16 -26 6 -53 13 -61 16 -9 4 -18 0 -21 -9z"/>
<path d="M2285 2316 c-16 -6 -36 -15 -42 -19 -8 -5 -13 -4 -13 3 0 6 -8 5 -22
-4 -13 -7 -31 -12 -40 -11 -10 2 -18 -1 -18 -7 0 -6 -7 -8 -15 -4 -8 3 -15 0
-15 -6 0 -6 -3 -8 -7 -5 -3 4 -13 1 -21 -6 -13 -9 -14 -9 -8 0 5 9 2 11 -8 7
-9 -3 -16 -11 -16 -18 0 -6 -5 -4 -10 4 -5 8 -10 10 -10 3 0 -6 -8 -10 -17 -8
-10 1 -23 -2 -30 -7 -7 -5 -17 -7 -23 -3 -5 3 -10 2 -10 -4 0 -8 -75 -27 -92
-23 -5 1 -8 -2 -8 -6 0 -4 -8 -8 -19 -9 -10 -1 -38 -7 -62 -14 -24 -7 -50 -12
-56 -10 -7 1 -13 -3 -13 -8 0 -5 -9 -8 -20 -6 -11 2 -20 1 -20 -3 0 -4 -12 -9
-27 -10 -15 -1 -30 -8 -35 -15 -6 -9 -8 -8 -8 3 0 12 -2 12 -9 2 -4 -7 -12
-12 -17 -11 -5 1 -16 0 -24 -4 -17 -6 -66 -18 -95 -24 -11 -2 -27 -6 -35 -10
-22 -9 -70 -20 -103 -22 -5 -1 -6 -4 -4 -8 3 -5 -5 -9 -16 -10 -69 -5 -100
-11 -105 -20 -4 -6 -15 -9 -24 -7 -10 1 -18 -3 -18 -9 0 -5 -2 -8 -5 -5 -3 3
-36 -4 -73 -14 -37 -11 -76 -21 -87 -22 -11 -1 -37 -8 -57 -15 l-38 -12 155
-156 c135 -135 154 -158 143 -172 -25 -31 -37 -41 -49 -41 -7 0 -9 -3 -6 -6 7
-8 -31 -44 -45 -44 -5 0 -7 -3 -5 -7 5 -10 -160 -173 -167 -165 -4 3 -6 0 -6
-7 0 -15 -66 -81 -74 -74 -3 4 -6 0 -6 -9 0 -8 -17 -27 -37 -41 -21 -15 -34
-27 -30 -27 4 0 -45 -53 -110 -117 -65 -65 -121 -116 -125 -115 -5 1 -8 -2 -8
-8 0 -13 -77 -90 -90 -90 -6 0 -9 -4 -8 -8 4 -10 -59 -72 -72 -72 -6 0 -9 -3
-8 -7 4 -11 -64 -79 -74 -75 -4 1 -8 -2 -8 -8 0 -13 -218 -229 -224 -222 -3 3
-6 0 -6 -6 0 -7 32 -44 70 -83 39 -40 70 -76 70 -80 0 -5 3 -8 7 -7 5 2 67
-57 140 -130 93 -93 136 -130 147 -126 9 3 14 9 12 13 -3 4 8 15 23 25 15 11
36 32 47 47 10 15 21 27 24 25 3 -1 199 193 436 431 237 238 429 433 427 433
-3 0 10 12 27 27 18 15 61 56 96 92 61 62 65 64 89 51 14 -7 25 -20 25 -28 0
-9 3 -12 7 -9 3 4 15 -5 25 -20 10 -16 18 -25 18 -21 0 7 66 -59 128 -127 17
-19 32 -33 32 -30 0 2 14 -9 30 -27 17 -17 31 -29 33 -27 25 43 28 51 15 43
-10 -6 -11 -5 -1 8 7 8 10 18 6 21 -3 4 -2 7 3 7 5 0 10 14 11 32 1 17 8 35
14 38 8 6 8 10 -1 15 -8 5 -9 10 -2 14 6 3 12 18 14 31 2 14 7 31 11 38 5 6 5
12 1 12 -3 0 -2 6 3 13 5 6 9 19 8 27 0 8 6 20 15 27 11 9 12 12 2 13 -8 0
-10 5 -5 13 4 6 8 17 10 22 5 22 12 52 22 82 5 17 7 34 3 37 -3 3 -1 6 4 6 5
0 11 11 12 25 3 36 6 49 14 55 4 4 9 25 11 48 3 24 8 46 12 50 5 4 5 1 0 -7
-5 -9 -4 -12 3 -7 6 4 8 14 5 22 -3 9 0 20 8 25 10 6 11 9 1 9 -9 0 -9 7 3 30
9 17 13 30 9 30 -4 0 -2 6 3 13 6 6 9 22 8 35 -1 12 3 22 8 22 5 0 7 6 4 13
-3 7 1 21 9 31 7 11 11 23 8 28 -3 5 -2 14 3 21 5 7 10 26 12 42 2 17 6 32 10
35 4 3 8 18 9 34 1 16 7 35 13 42 6 8 9 14 5 14 -3 0 0 16 8 35 11 26 12 35 3
35 -8 0 -7 3 2 9 7 5 10 14 7 20 -4 6 -2 11 4 11 6 0 8 5 5 10 -3 6 -3 10 2
10 4 0 9 10 10 23 4 35 9 56 15 63 4 3 4 12 1 20 -3 8 1 14 8 14 7 0 10 3 6 6
-3 3 -1 18 4 32 13 33 2 41 -36 28z"/>
</g>
</svg>
